<?xml version="1.0" encoding="UTF-8" standalone="no"?>
<!DOCTYPE svg PUBLIC "-//W3C//DTD SVG 1.1//EN"
 "http://www.w3.org/Graphics/SVG/1.1/DTD/svg11.dtd">
<!-- Generated by graphviz version 2.43.0 (0)
 -->
<!-- Pages: 1 -->
<svg width="1170pt" height="758pt"
 viewBox="0.00 0.00 1169.70 757.81" xmlns="http://www.w3.org/2000/svg" xmlns:xlink="http://www.w3.org/1999/xlink">
<g id="graph0" class="graph" transform="scale(1 1) rotate(0) translate(4 753.81)">
<polygon fill="white" stroke="transparent" points="-4,4 -4,-753.81 1165.7,-753.81 1165.7,4 -4,4"/>
<!-- 95a53d42&#45;7e5f&#45;4118&#45;81f0&#45;db4fbf6fd55b -->
<g id="node1" class="node">
<title>95a53d42&#45;7e5f&#45;4118&#45;81f0&#45;db4fbf6fd55b</title>
<ellipse fill="#d7191c" stroke="black" cx="633.63" cy="-362.73" rx="32.5" ry="18"/>
<text text-anchor="middle" x="633.63" y="-359.03" font-family="Times,serif" font-size="14.00">grep</text>
</g>
<!-- 764fd5a8&#45;3643&#45;4bc9&#45;b16e&#45;528a1f8a988f -->
<g id="node2" class="node">
<title>764fd5a8&#45;3643&#45;4bc9&#45;b16e&#45;528a1f8a988f</title>
<ellipse fill="#fdae61" stroke="black" cx="688.23" cy="-216.28" rx="45.5" ry="18"/>
<text text-anchor="middle" x="688.23" y="-212.58" font-family="Times,serif" font-size="14.00">context</text>
</g>
<!-- 95a53d42&#45;7e5f&#45;4118&#45;81f0&#45;db4fbf6fd55b&#45;&gt;764fd5a8&#45;3643&#45;4bc9&#45;b16e&#45;528a1f8a988f -->
<g id="edge1" class="edge">
<title>95a53d42&#45;7e5f&#45;4118&#45;81f0&#45;db4fbf6fd55b&#45;&gt;764fd5a8&#45;3643&#45;4bc9&#45;b16e&#45;528a1f8a988f</title>
<path fill="none" stroke="black" d="M640.21,-345.07C649.59,-319.91 666.88,-273.54 677.95,-243.84"/>
<polygon fill="black" stroke="black" points="681.23,-245.05 681.45,-234.46 674.68,-242.61 681.23,-245.05"/>
</g>
<!-- ee3e02ae&#45;80a9&#45;4ac7&#45;9a60&#45;9954034712e4 -->
<g id="node3" class="node">
<title>ee3e02ae&#45;80a9&#45;4ac7&#45;9a60&#45;9954034712e4</title>
<ellipse fill="#fdae61" stroke="black" cx="778.05" cy="-449.18" rx="61.19" ry="18"/>
<text text-anchor="middle" x="778.05" y="-445.48" font-family="Times,serif" font-size="14.00">expression</text>
</g>
<!-- 95a53d42&#45;7e5f&#45;4118&#45;81f0&#45;db4fbf6fd55b&#45;&gt;ee3e02ae&#45;80a9&#45;4ac7&#45;9a60&#45;9954034712e4 -->
<g id="edge2" class="edge">
<title>95a53d42&#45;7e5f&#45;4118&#45;81f0&#45;db4fbf6fd55b&#45;&gt;ee3e02ae&#45;80a9&#45;4ac7&#45;9a60&#45;9954034712e4</title>
<path fill="none" stroke="black" d="M655.88,-376.05C678.84,-389.79 715.02,-411.45 742.06,-427.63"/>
<polygon fill="black" stroke="black" points="740.46,-430.75 750.84,-432.89 744.06,-424.75 740.46,-430.75"/>
</g>
<!-- 763c8e64&#45;7cde&#45;48ef&#45;8514&#45;630b0338da71 -->
<g id="node4" class="node">
<title>763c8e64&#45;7cde&#45;48ef&#45;8514&#45;630b0338da71</title>
<ellipse fill="#d7191c" stroke="black" cx="455.93" cy="-402.47" rx="65.79" ry="18"/>
<text text-anchor="middle" x="455.93" y="-398.77" font-family="Times,serif" font-size="14.00">be specified</text>
</g>
<!-- 95a53d42&#45;7e5f&#45;4118&#45;81f0&#45;db4fbf6fd55b&#45;&gt;763c8e64&#45;7cde&#45;48ef&#45;8514&#45;630b0338da71 -->
<g id="edge3" class="edge">
<title>95a53d42&#45;7e5f&#45;4118&#45;81f0&#45;db4fbf6fd55b&#45;&gt;763c8e64&#45;7cde&#45;48ef&#45;8514&#45;630b0338da71</title>
<path fill="none" stroke="black" d="M603.48,-369.47C579.92,-374.74 546.39,-382.24 517.24,-388.76"/>
<polygon fill="black" stroke="black" points="516.14,-385.42 507.14,-391.02 517.66,-392.25 516.14,-385.42"/>
</g>
<!-- bee4bd37&#45;6242&#45;435d&#45;93b1&#45;1c53e81a8b5a -->
<g id="node5" class="node">
<title>bee4bd37&#45;6242&#45;435d&#45;93b1&#45;1c53e81a8b5a</title>
<ellipse fill="#ffffbf" stroke="black" cx="783.51" cy="-226.88" rx="27" ry="18"/>
<text text-anchor="middle" x="783.51" y="-223.18" font-family="Times,serif" font-size="14.00">&#45;A</text>
</g>
<!-- 764fd5a8&#45;3643&#45;4bc9&#45;b16e&#45;528a1f8a988f&#45;&gt;bee4bd37&#45;6242&#45;435d&#45;93b1&#45;1c53e81a8b5a -->
<g id="edge4" class="edge">
<title>764fd5a8&#45;3643&#45;4bc9&#45;b16e&#45;528a1f8a988f&#45;&gt;bee4bd37&#45;6242&#45;435d&#45;93b1&#45;1c53e81a8b5a</title>
<path fill="none" stroke="black" d="M732.24,-221.18C737.09,-221.72 741.99,-222.26 746.74,-222.79"/>
<polygon fill="black" stroke="black" points="746.49,-226.28 756.81,-223.91 747.26,-219.33 746.49,-226.28"/>
</g>
<!-- 6a0a802e&#45;1162&#45;48a5&#45;974f&#45;44579762625b -->
<g id="node6" class="node">
<title>6a0a802e&#45;1162&#45;48a5&#45;974f&#45;44579762625b</title>
<ellipse fill="#ffffbf" stroke="black" cx="605.39" cy="-178.9" rx="27" ry="18"/>
<text text-anchor="middle" x="605.39" y="-175.2" font-family="Times,serif" font-size="14.00">&#45;B</text>
</g>
<!-- 764fd5a8&#45;3643&#45;4bc9&#45;b16e&#45;528a1f8a988f&#45;&gt;6a0a802e&#45;1162&#45;48a5&#45;974f&#45;44579762625b -->
<g id="edge5" class="edge">
<title>764fd5a8&#45;3643&#45;4bc9&#45;b16e&#45;528a1f8a988f&#45;&gt;6a0a802e&#45;1162&#45;48a5&#45;974f&#45;44579762625b</title>
<path fill="none" stroke="black" d="M657.85,-202.57C651.21,-199.58 644.17,-196.4 637.46,-193.37"/>
<polygon fill="black" stroke="black" points="638.54,-190.01 627.98,-189.09 635.66,-196.39 638.54,-190.01"/>
</g>
<!-- e4c11deb&#45;6888&#45;45a6&#45;808d&#45;d43710a3ebae -->
<g id="node7" class="node">
<title>e4c11deb&#45;6888&#45;45a6&#45;808d&#45;d43710a3ebae</title>
<ellipse fill="#ffffbf" stroke="black" cx="672.63" cy="-105.14" rx="27" ry="18"/>
<text text-anchor="middle" x="672.63" y="-101.44" font-family="Times,serif" font-size="14.00">&#45;C</text>
</g>
<!-- 764fd5a8&#45;3643&#45;4bc9&#45;b16e&#45;528a1f8a988f&#45;&gt;e4c11deb&#45;6888&#45;45a6&#45;808d&#45;d43710a3ebae -->
<g id="edge6" class="edge">
<title>764fd5a8&#45;3643&#45;4bc9&#45;b16e&#45;528a1f8a988f&#45;&gt;e4c11deb&#45;6888&#45;45a6&#45;808d&#45;d43710a3ebae</title>
<path fill="none" stroke="black" d="M685.66,-197.92C683.18,-180.28 679.4,-153.38 676.55,-133.08"/>
<polygon fill="black" stroke="black" points="680.01,-132.57 675.16,-123.15 673.08,-133.54 680.01,-132.57"/>
</g>
<!-- 66a737a6&#45;7094&#45;437b&#45;ba31&#45;cf5bc4b06034 -->
<g id="node8" class="node">
<title>66a737a6&#45;7094&#45;437b&#45;ba31&#45;cf5bc4b06034</title>
<ellipse fill="#ffffbf" stroke="black" cx="763.68" cy="-130.2" rx="27" ry="18"/>
<text text-anchor="middle" x="763.68" y="-126.5" font-family="Times,serif" font-size="14.00">&#45;n</text>
</g>
<!-- 764fd5a8&#45;3643&#45;4bc9&#45;b16e&#45;528a1f8a988f&#45;&gt;66a737a6&#45;7094&#45;437b&#45;ba31&#45;cf5bc4b06034 -->
<g id="edge7" class="edge">
<title>764fd5a8&#45;3643&#45;4bc9&#45;b16e&#45;528a1f8a988f&#45;&gt;66a737a6&#45;7094&#45;437b&#45;ba31&#45;cf5bc4b06034</title>
<path fill="none" stroke="black" d="M703.5,-198.86C714.87,-185.88 730.53,-168.02 743.02,-153.77"/>
<polygon fill="black" stroke="black" points="746,-155.69 749.96,-145.86 740.73,-151.07 746,-155.69"/>
</g>
<!-- 92e32be4&#45;ff7b&#45;41d0&#45;bb52&#45;d86387bc3ef7 -->
<g id="node9" class="node">
<title>92e32be4&#45;ff7b&#45;41d0&#45;bb52&#45;d86387bc3ef7</title>
<ellipse fill="#ffffbf" stroke="black" cx="841.32" cy="-530.69" rx="27" ry="18"/>
<text text-anchor="middle" x="841.32" y="-526.99" font-family="Times,serif" font-size="14.00">&#45;e</text>
</g>
<!-- ee3e02ae&#45;80a9&#45;4ac7&#45;9a60&#45;9954034712e4&#45;&gt;92e32be4&#45;ff7b&#45;41d0&#45;bb52&#45;d86387bc3ef7 -->
<g id="edge8" class="edge">
<title>ee3e02ae&#45;80a9&#45;4ac7&#45;9a60&#45;9954034712e4&#45;&gt;92e32be4&#45;ff7b&#45;41d0&#45;bb52&#45;d86387bc3ef7</title>
<path fill="none" stroke="black" d="M791.78,-466.86C800.84,-478.54 812.83,-493.98 822.74,-506.76"/>
<polygon fill="black" stroke="black" points="820.01,-508.95 828.91,-514.7 825.54,-504.66 820.01,-508.95"/>
</g>
<!-- df4aa68a&#45;e829&#45;4d46&#45;a5f9&#45;59b92ff82c90 -->
<g id="node10" class="node">
<title>df4aa68a&#45;e829&#45;4d46&#45;a5f9&#45;59b92ff82c90</title>
<ellipse fill="#ffffbf" stroke="black" cx="745.96" cy="-540.73" rx="27" ry="18"/>
<text text-anchor="middle" x="745.96" y="-537.03" font-family="Times,serif" font-size="14.00">&#45;P</text>
</g>
<!-- ee3e02ae&#45;80a9&#45;4ac7&#45;9a60&#45;9954034712e4&#45;&gt;df4aa68a&#45;e829&#45;4d46&#45;a5f9&#45;59b92ff82c90 -->
<g id="edge9" class="edge">
<title>ee3e02ae&#45;80a9&#45;4ac7&#45;9a60&#45;9954034712e4&#45;&gt;df4aa68a&#45;e829&#45;4d46&#45;a5f9&#45;59b92ff82c90</title>
<path fill="none" stroke="black" d="M771.71,-467.26C767.11,-480.39 760.8,-498.38 755.58,-513.28"/>
<polygon fill="black" stroke="black" points="752.18,-512.4 752.18,-522.99 758.79,-514.71 752.18,-512.4"/>
</g>
<!-- 1354bb05&#45;358c&#45;422c&#45;b487&#45;4fb43d49951c -->
<g id="node11" class="node">
<title>1354bb05&#45;358c&#45;422c&#45;b487&#45;4fb43d49951c</title>
<ellipse fill="#ffffbf" stroke="black" cx="922.88" cy="-445.43" rx="49.5" ry="18"/>
<text text-anchor="middle" x="922.88" y="-441.73" font-family="Times,serif" font-size="14.00">modifier</text>
</g>
<!-- ee3e02ae&#45;80a9&#45;4ac7&#45;9a60&#45;9954034712e4&#45;&gt;1354bb05&#45;358c&#45;422c&#45;b487&#45;4fb43d49951c -->
<g id="edge10" class="edge">
<title>ee3e02ae&#45;80a9&#45;4ac7&#45;9a60&#45;9954034712e4&#45;&gt;1354bb05&#45;358c&#45;422c&#45;b487&#45;4fb43d49951c</title>
<path fill="none" stroke="black" d="M839.05,-447.6C847.09,-447.39 855.33,-447.18 863.35,-446.97"/>
<polygon fill="black" stroke="black" points="863.46,-450.47 873.36,-446.71 863.27,-443.47 863.46,-450.47"/>
</g>
<!-- e07339a1&#45;935a&#45;4e39&#45;bac2&#45;bb3590727415 -->
<g id="node12" class="node">
<title>e07339a1&#45;935a&#45;4e39&#45;bac2&#45;bb3590727415</title>
<ellipse fill="#fdae61" stroke="black" cx="306.31" cy="-323.77" rx="41.69" ry="18"/>
<text text-anchor="middle" x="306.31" y="-320.07" font-family="Times,serif" font-size="14.00">output</text>
</g>
<!-- 763c8e64&#45;7cde&#45;48ef&#45;8514&#45;630b0338da71&#45;&gt;e07339a1&#45;935a&#45;4e39&#45;bac2&#45;bb3590727415 -->
<g id="edge11" class="edge">
<title>763c8e64&#45;7cde&#45;48ef&#45;8514&#45;630b0338da71&#45;&gt;e07339a1&#45;935a&#45;4e39&#45;bac2&#45;bb3590727415</title>
<path fill="none" stroke="black" d="M425.29,-386.36C401.08,-373.62 367.25,-355.82 341.85,-342.46"/>
<polygon fill="black" stroke="black" points="343.38,-339.31 332.9,-337.76 340.13,-345.51 343.38,-339.31"/>
</g>
<!-- 27eaafc7&#45;d73c&#45;497b&#45;a487&#45;1391e7190381 -->
<g id="node13" class="node">
<title>27eaafc7&#45;d73c&#45;497b&#45;a487&#45;1391e7190381</title>
<ellipse fill="#fdae61" stroke="black" cx="405.02" cy="-542.46" rx="61.19" ry="18"/>
<text text-anchor="middle" x="405.02" y="-538.76" font-family="Times,serif" font-size="14.00">file / folder</text>
</g>
<!-- 763c8e64&#45;7cde&#45;48ef&#45;8514&#45;630b0338da71&#45;&gt;27eaafc7&#45;d73c&#45;497b&#45;a487&#45;1391e7190381 -->
<g id="edge12" class="edge">
<title>763c8e64&#45;7cde&#45;48ef&#45;8514&#45;630b0338da71&#45;&gt;27eaafc7&#45;d73c&#45;497b&#45;a487&#45;1391e7190381</title>
<path fill="none" stroke="black" d="M449.38,-420.49C440.67,-444.43 425.21,-486.95 415.03,-514.93"/>
<polygon fill="black" stroke="black" points="411.68,-513.92 411.55,-524.51 418.26,-516.31 411.68,-513.92"/>
</g>
<!-- ebe56841&#45;e2fc&#45;4bc2&#45;af9f&#45;dc31819014bf -->
<g id="node14" class="node">
<title>ebe56841&#45;e2fc&#45;4bc2&#45;af9f&#45;dc31819014bf</title>
<ellipse fill="#abd9e9" stroke="black" cx="865.56" cy="-221.19" rx="33.29" ry="18"/>
<text text-anchor="middle" x="865.56" y="-217.49" font-family="Times,serif" font-size="14.00">after</text>
</g>
<!-- bee4bd37&#45;6242&#45;435d&#45;93b1&#45;1c53e81a8b5a&#45;&gt;ebe56841&#45;e2fc&#45;4bc2&#45;af9f&#45;dc31819014bf -->
<g id="edge13" class="edge">
<title>bee4bd37&#45;6242&#45;435d&#45;93b1&#45;1c53e81a8b5a&#45;&gt;ebe56841&#45;e2fc&#45;4bc2&#45;af9f&#45;dc31819014bf</title>
<path fill="none" stroke="black" d="M810.37,-225.02C814.26,-224.75 818.34,-224.47 822.44,-224.18"/>
<polygon fill="black" stroke="black" points="822.88,-227.66 832.61,-223.48 822.39,-220.68 822.88,-227.66"/>
</g>
<!-- 2e04706f&#45;a579&#45;448f&#45;9a68&#45;18c33f7a2bdf -->
<g id="node15" class="node">
<title>2e04706f&#45;a579&#45;448f&#45;9a68&#45;18c33f7a2bdf</title>
<ellipse fill="#abd9e9" stroke="black" cx="541.13" cy="-132.01" rx="40.5" ry="18"/>
<text text-anchor="middle" x="541.13" y="-128.31" font-family="Times,serif" font-size="14.00">before</text>
</g>
<!-- 6a0a802e&#45;1162&#45;48a5&#45;974f&#45;44579762625b&#45;&gt;2e04706f&#45;a579&#45;448f&#45;9a68&#45;18c33f7a2bdf -->
<g id="edge14" class="edge">
<title>6a0a802e&#45;1162&#45;48a5&#45;974f&#45;44579762625b&#45;&gt;2e04706f&#45;a579&#45;448f&#45;9a68&#45;18c33f7a2bdf</title>
<path fill="none" stroke="black" d="M587.15,-165.59C581.96,-161.8 576.18,-157.58 570.51,-153.45"/>
<polygon fill="black" stroke="black" points="572.51,-150.58 562.37,-147.51 568.39,-156.23 572.51,-150.58"/>
</g>
<!-- bd512241&#45;9a04&#45;4994&#45;9dd0&#45;cea21b6ed39c -->
<g id="node16" class="node">
<title>bd512241&#45;9a04&#45;4994&#45;9dd0&#45;cea21b6ed39c</title>
<ellipse fill="#abd9e9" stroke="black" cx="656.74" cy="-18" rx="45.5" ry="18"/>
<text text-anchor="middle" x="656.74" y="-14.3" font-family="Times,serif" font-size="14.00">context</text>
</g>
<!-- e4c11deb&#45;6888&#45;45a6&#45;808d&#45;d43710a3ebae&#45;&gt;bd512241&#45;9a04&#45;4994&#45;9dd0&#45;cea21b6ed39c -->
<g id="edge15" class="edge">
<title>e4c11deb&#45;6888&#45;45a6&#45;808d&#45;d43710a3ebae&#45;&gt;bd512241&#45;9a04&#45;4994&#45;9dd0&#45;cea21b6ed39c</title>
<path fill="none" stroke="black" d="M669.34,-87.08C667.19,-75.28 664.33,-59.63 661.89,-46.2"/>
<polygon fill="black" stroke="black" points="665.27,-45.24 660.03,-36.03 658.39,-46.5 665.27,-45.24"/>
</g>
<!-- 3cda2ca3&#45;f987&#45;4970&#45;b0ad&#45;0581a03585cc -->
<g id="node17" class="node">
<title>3cda2ca3&#45;f987&#45;4970&#45;b0ad&#45;0581a03585cc</title>
<ellipse fill="#abd9e9" stroke="black" cx="823.73" cy="-62.89" rx="67" ry="18"/>
<text text-anchor="middle" x="823.73" y="-59.19" font-family="Times,serif" font-size="14.00">line number</text>
</g>
<!-- 66a737a6&#45;7094&#45;437b&#45;ba31&#45;cf5bc4b06034&#45;&gt;3cda2ca3&#45;f987&#45;4970&#45;b0ad&#45;0581a03585cc -->
<g id="edge16" class="edge">
<title>66a737a6&#45;7094&#45;437b&#45;ba31&#45;cf5bc4b06034&#45;&gt;3cda2ca3&#45;f987&#45;4970&#45;b0ad&#45;0581a03585cc</title>
<path fill="none" stroke="black" d="M777.61,-114.59C784.57,-106.78 793.18,-97.13 801.07,-88.29"/>
<polygon fill="black" stroke="black" points="803.71,-90.59 807.75,-80.79 798.48,-85.93 803.71,-90.59"/>
</g>
<!-- eadde2f1&#45;9c09&#45;4ba4&#45;afc4&#45;034b7cb4aa6f -->
<g id="node18" class="node">
<title>eadde2f1&#45;9c09&#45;4ba4&#45;afc4&#45;034b7cb4aa6f</title>
<ellipse fill="#abd9e9" stroke="black" cx="886.86" cy="-605.92" rx="120.48" ry="18"/>
<text text-anchor="middle" x="886.86" y="-602.22" font-family="Times,serif" font-size="14.00">pattern. multiple &#45;e can</text>
</g>
<!-- 92e32be4&#45;ff7b&#45;41d0&#45;bb52&#45;d86387bc3ef7&#45;&gt;eadde2f1&#45;9c09&#45;4ba4&#45;afc4&#45;034b7cb4aa6f -->
<g id="edge17" class="edge">
<title>92e32be4&#45;ff7b&#45;41d0&#45;bb52&#45;d86387bc3ef7&#45;&gt;eadde2f1&#45;9c09&#45;4ba4&#45;afc4&#45;034b7cb4aa6f</title>
<path fill="none" stroke="black" d="M851.43,-547.39C857.12,-556.79 864.36,-568.74 870.81,-579.4"/>
<polygon fill="black" stroke="black" points="867.82,-581.21 875.99,-587.95 873.8,-577.58 867.82,-581.21"/>
</g>
<!-- 482c208e&#45;b191&#45;4096&#45;9215&#45;17b5e61767bc -->
<g id="node19" class="node">
<title>482c208e&#45;b191&#45;4096&#45;9215&#45;17b5e61767bc</title>
<ellipse fill="#abd9e9" stroke="black" cx="738.16" cy="-624.8" rx="58.5" ry="18"/>
<text text-anchor="middle" x="738.16" y="-621.1" font-family="Times,serif" font-size="14.00">perl regex</text>
</g>
<!-- df4aa68a&#45;e829&#45;4d46&#45;a5f9&#45;59b92ff82c90&#45;&gt;482c208e&#45;b191&#45;4096&#45;9215&#45;17b5e61767bc -->
<g id="edge18" class="edge">
<title>df4aa68a&#45;e829&#45;4d46&#45;a5f9&#45;59b92ff82c90&#45;&gt;482c208e&#45;b191&#45;4096&#45;9215&#45;17b5e61767bc</title>
<path fill="none" stroke="black" d="M744.27,-558.97C743.26,-569.88 741.95,-583.97 740.81,-596.32"/>
<polygon fill="black" stroke="black" points="737.3,-596.31 739.85,-606.59 744.27,-596.96 737.3,-596.31"/>
</g>
<!-- 9bbd4479&#45;529c&#45;4e89&#45;9c1d&#45;b35bbce54508 -->
<g id="node20" class="node">
<title>9bbd4479&#45;529c&#45;4e89&#45;9c1d&#45;b35bbce54508</title>
<ellipse fill="#abd9e9" stroke="black" cx="1012.9" cy="-391.96" rx="27" ry="18"/>
<text text-anchor="middle" x="1012.9" y="-388.26" font-family="Times,serif" font-size="14.00">&#45;v</text>
</g>
<!-- 1354bb05&#45;358c&#45;422c&#45;b487&#45;4fb43d49951c&#45;&gt;9bbd4479&#45;529c&#45;4e89&#45;9c1d&#45;b35bbce54508 -->
<g id="edge19" class="edge">
<title>1354bb05&#45;358c&#45;422c&#45;b487&#45;4fb43d49951c&#45;&gt;9bbd4479&#45;529c&#45;4e89&#45;9c1d&#45;b35bbce54508</title>
<path fill="none" stroke="black" d="M948.91,-429.96C959.88,-423.44 972.7,-415.82 983.97,-409.13"/>
<polygon fill="black" stroke="black" points="985.8,-412.11 992.61,-404 982.23,-406.1 985.8,-412.11"/>
</g>
<!-- 20449507&#45;76eb&#45;403d&#45;bab5&#45;e7ab15f1d829 -->
<g id="node21" class="node">
<title>20449507&#45;76eb&#45;403d&#45;bab5&#45;e7ab15f1d829</title>
<ellipse fill="#abd9e9" stroke="black" cx="1017.3" cy="-498.84" rx="27" ry="18"/>
<text text-anchor="middle" x="1017.3" y="-495.14" font-family="Times,serif" font-size="14.00">&#45;i</text>
</g>
<!-- 1354bb05&#45;358c&#45;422c&#45;b487&#45;4fb43d49951c&#45;&gt;20449507&#45;76eb&#45;403d&#45;bab5&#45;e7ab15f1d829 -->
<g id="edge20" class="edge">
<title>1354bb05&#45;358c&#45;422c&#45;b487&#45;4fb43d49951c&#45;&gt;20449507&#45;76eb&#45;403d&#45;bab5&#45;e7ab15f1d829</title>
<path fill="none" stroke="black" d="M949.69,-460.59C961.51,-467.28 975.44,-475.16 987.58,-482.02"/>
<polygon fill="black" stroke="black" points="986.02,-485.16 996.45,-487.04 989.47,-479.07 986.02,-485.16"/>
</g>
<!-- 4ef9f6a4&#45;ad6f&#45;4a21&#45;810a&#45;b403b5f2f67a -->
<g id="node22" class="node">
<title>4ef9f6a4&#45;ad6f&#45;4a21&#45;810a&#45;b403b5f2f67a</title>
<ellipse fill="#ffffbf" stroke="black" cx="329.42" cy="-228.03" rx="27" ry="18"/>
<text text-anchor="middle" x="329.42" y="-224.33" font-family="Times,serif" font-size="14.00">&#45;s</text>
</g>
<!-- e07339a1&#45;935a&#45;4e39&#45;bac2&#45;bb3590727415&#45;&gt;4ef9f6a4&#45;ad6f&#45;4a21&#45;810a&#45;b403b5f2f67a -->
<g id="edge21" class="edge">
<title>e07339a1&#45;935a&#45;4e39&#45;bac2&#45;bb3590727415&#45;&gt;4ef9f6a4&#45;ad6f&#45;4a21&#45;810a&#45;b403b5f2f67a</title>
<path fill="none" stroke="black" d="M310.66,-305.76C314.05,-291.72 318.82,-271.97 322.7,-255.9"/>
<polygon fill="black" stroke="black" points="326.16,-256.5 325.1,-245.96 319.35,-254.86 326.16,-256.5"/>
</g>
<!-- 77eb70d5&#45;fca0&#45;4644&#45;93ee&#45;aab7e1ca3404 -->
<g id="node23" class="node">
<title>77eb70d5&#45;fca0&#45;4644&#45;93ee&#45;aab7e1ca3404</title>
<ellipse fill="#ffffbf" stroke="black" cx="191.77" cy="-308.85" rx="27" ry="18"/>
<text text-anchor="middle" x="191.77" y="-305.15" font-family="Times,serif" font-size="14.00">&#45;m</text>
</g>
<!-- e07339a1&#45;935a&#45;4e39&#45;bac2&#45;bb3590727415&#45;&gt;77eb70d5&#45;fca0&#45;4644&#45;93ee&#45;aab7e1ca3404 -->
<g id="edge22" class="edge">
<title>e07339a1&#45;935a&#45;4e39&#45;bac2&#45;bb3590727415&#45;&gt;77eb70d5&#45;fca0&#45;4644&#45;93ee&#45;aab7e1ca3404</title>
<path fill="none" stroke="black" d="M266.25,-318.55C253.97,-316.95 240.54,-315.2 228.5,-313.63"/>
<polygon fill="black" stroke="black" points="228.71,-310.13 218.34,-312.31 227.81,-317.07 228.71,-310.13"/>
</g>
<!-- 25fd5526&#45;a615&#45;4a95&#45;b879&#45;a2149e67ef02 -->
<g id="node24" class="node">
<title>25fd5526&#45;a615&#45;4a95&#45;b879&#45;a2149e67ef02</title>
<ellipse fill="#ffffbf" stroke="black" cx="235.54" cy="-233.63" rx="27" ry="18"/>
<text text-anchor="middle" x="235.54" y="-229.93" font-family="Times,serif" font-size="14.00">&#45;o</text>
</g>
<!-- e07339a1&#45;935a&#45;4e39&#45;bac2&#45;bb3590727415&#45;&gt;25fd5526&#45;a615&#45;4a95&#45;b879&#45;a2149e67ef02 -->
<g id="edge23" class="edge">
<title>e07339a1&#45;935a&#45;4e39&#45;bac2&#45;bb3590727415&#45;&gt;25fd5526&#45;a615&#45;4a95&#45;b879&#45;a2149e67ef02</title>
<path fill="none" stroke="black" d="M292.67,-306.39C281.82,-292.58 266.53,-273.1 254.49,-257.77"/>
<polygon fill="black" stroke="black" points="257.12,-255.45 248.19,-249.75 251.62,-259.78 257.12,-255.45"/>
</g>
<!-- 8696fe3b&#45;254c&#45;41fe&#45;b2c8&#45;df0ba22f200b -->
<g id="node25" class="node">
<title>8696fe3b&#45;254c&#45;41fe&#45;b2c8&#45;df0ba22f200b</title>
<ellipse fill="#ffffbf" stroke="black" cx="229.47" cy="-392.3" rx="27" ry="18"/>
<text text-anchor="middle" x="229.47" y="-388.6" font-family="Times,serif" font-size="14.00">&#45;c</text>
</g>
<!-- e07339a1&#45;935a&#45;4e39&#45;bac2&#45;bb3590727415&#45;&gt;8696fe3b&#45;254c&#45;41fe&#45;b2c8&#45;df0ba22f200b -->
<g id="edge24" class="edge">
<title>e07339a1&#45;935a&#45;4e39&#45;bac2&#45;bb3590727415&#45;&gt;8696fe3b&#45;254c&#45;41fe&#45;b2c8&#45;df0ba22f200b</title>
<path fill="none" stroke="black" d="M288.1,-340.01C277.74,-349.25 264.65,-360.93 253.46,-370.9"/>
<polygon fill="black" stroke="black" points="250.85,-368.54 245.72,-377.81 255.51,-373.76 250.85,-368.54"/>
</g>
<!-- c85086c2&#45;e04b&#45;44f8&#45;a8c5&#45;f7056811314e -->
<g id="node26" class="node">
<title>c85086c2&#45;e04b&#45;44f8&#45;a8c5&#45;f7056811314e</title>
<ellipse fill="#ffffbf" stroke="black" cx="370.41" cy="-648.1" rx="27" ry="18"/>
<text text-anchor="middle" x="370.41" y="-644.4" font-family="Times,serif" font-size="14.00">&#45;h</text>
</g>
<!-- 27eaafc7&#45;d73c&#45;497b&#45;a487&#45;1391e7190381&#45;&gt;c85086c2&#45;e04b&#45;44f8&#45;a8c5&#45;f7056811314e -->
<g id="edge25" class="edge">
<title>27eaafc7&#45;d73c&#45;497b&#45;a487&#45;1391e7190381&#45;&gt;c85086c2&#45;e04b&#45;44f8&#45;a8c5&#45;f7056811314e</title>
<path fill="none" stroke="black" d="M399.15,-560.38C393.72,-576.94 385.58,-601.8 379.34,-620.83"/>
<polygon fill="black" stroke="black" points="375.98,-619.85 376.19,-630.44 382.63,-622.03 375.98,-619.85"/>
</g>
<!-- 64e7b2a2&#45;44c4&#45;4929&#45;9f0e&#45;1a1132e201c7 -->
<g id="node27" class="node">
<title>64e7b2a2&#45;44c4&#45;4929&#45;9f0e&#45;1a1132e201c7</title>
<ellipse fill="#ffffbf" stroke="black" cx="307.19" cy="-575.61" rx="27" ry="18"/>
<text text-anchor="middle" x="307.19" y="-571.91" font-family="Times,serif" font-size="14.00">&#45;H</text>
</g>
<!-- 27eaafc7&#45;d73c&#45;497b&#45;a487&#45;1391e7190381&#45;&gt;64e7b2a2&#45;44c4&#45;4929&#45;9f0e&#45;1a1132e201c7 -->
<g id="edge26" class="edge">
<title>27eaafc7&#45;d73c&#45;497b&#45;a487&#45;1391e7190381&#45;&gt;64e7b2a2&#45;44c4&#45;4929&#45;9f0e&#45;1a1132e201c7</title>
<path fill="none" stroke="black" d="M364.67,-556.13C356.83,-558.79 348.7,-561.54 341.1,-564.12"/>
<polygon fill="black" stroke="black" points="339.84,-560.85 331.49,-567.37 342.09,-567.48 339.84,-560.85"/>
</g>
<!-- 44f5fc14&#45;6d6a&#45;4178&#45;b083&#45;3eca56d87092 -->
<g id="node28" class="node">
<title>44f5fc14&#45;6d6a&#45;4178&#45;b083&#45;3eca56d87092</title>
<ellipse fill="#ffffbf" stroke="black" cx="466.24" cy="-618.46" rx="27" ry="18"/>
<text text-anchor="middle" x="466.24" y="-614.76" font-family="Times,serif" font-size="14.00">&#45;r</text>
</g>
<!-- 27eaafc7&#45;d73c&#45;497b&#45;a487&#45;1391e7190381&#45;&gt;44f5fc14&#45;6d6a&#45;4178&#45;b083&#45;3eca56d87092 -->
<g id="edge27" class="edge">
<title>27eaafc7&#45;d73c&#45;497b&#45;a487&#45;1391e7190381&#45;&gt;44f5fc14&#45;6d6a&#45;4178&#45;b083&#45;3eca56d87092</title>
<path fill="none" stroke="black" d="M419.22,-560.09C427.44,-570.29 437.9,-583.27 446.87,-594.41"/>
<polygon fill="black" stroke="black" points="444.37,-596.89 453.37,-602.48 449.82,-592.5 444.37,-596.89"/>
</g>
<!-- 40a5e045&#45;4f6f&#45;4dfa&#45;b58e&#45;ab9c7553df58 -->
<g id="node29" class="node">
<title>40a5e045&#45;4f6f&#45;4dfa&#45;b58e&#45;ab9c7553df58</title>
<ellipse fill="#2c7bb6" stroke="black" cx="1090.6" cy="-354.7" rx="70.39" ry="18"/>
<text text-anchor="middle" x="1090.6" y="-351" font-family="Times,serif" font-size="14.00">invert match</text>
</g>
<!-- 9bbd4479&#45;529c&#45;4e89&#45;9c1d&#45;b35bbce54508&#45;&gt;40a5e045&#45;4f6f&#45;4dfa&#45;b58e&#45;ab9c7553df58 -->
<g id="edge28" class="edge">
<title>9bbd4479&#45;529c&#45;4e89&#45;9c1d&#45;b35bbce54508&#45;&gt;40a5e045&#45;4f6f&#45;4dfa&#45;b58e&#45;ab9c7553df58</title>
<path fill="none" stroke="black" d="M1034.9,-381.38C1039.1,-379.39 1043.6,-377.24 1048.1,-375.07"/>
<polygon fill="black" stroke="black" points="1049.98,-378.05 1057.5,-370.59 1046.97,-371.73 1049.98,-378.05"/>
</g>
<!-- 1f1e8df4&#45;015a&#45;4967&#45;849b&#45;bfd948e2532b -->
<g id="node30" class="node">
<title>1f1e8df4&#45;015a&#45;4967&#45;849b&#45;bfd948e2532b</title>
<ellipse fill="#2c7bb6" stroke="black" cx="1098" cy="-532.69" rx="63.89" ry="18"/>
<text text-anchor="middle" x="1098" y="-528.99" font-family="Times,serif" font-size="14.00">ignore case</text>
</g>
<!-- 20449507&#45;76eb&#45;403d&#45;bab5&#45;e7ab15f1d829&#45;&gt;1f1e8df4&#45;015a&#45;4967&#45;849b&#45;bfd948e2532b -->
<g id="edge29" class="edge">
<title>20449507&#45;76eb&#45;403d&#45;bab5&#45;e7ab15f1d829&#45;&gt;1f1e8df4&#45;015a&#45;4967&#45;849b&#45;bfd948e2532b</title>
<path fill="none" stroke="black" d="M1040.2,-508.45C1044.2,-510.12 1048.5,-511.91 1052.8,-513.73"/>
<polygon fill="black" stroke="black" points="1051.82,-517.12 1062.4,-517.74 1054.52,-510.66 1051.82,-517.12"/>
</g>
<!-- 56f950da&#45;4d98&#45;4728&#45;bdb1&#45;d55514fcb7c8 -->
<g id="node31" class="node">
<title>56f950da&#45;4d98&#45;4728&#45;bdb1&#45;d55514fcb7c8</title>
<ellipse fill="#abd9e9" stroke="black" cx="328.43" cy="-142.44" rx="99" ry="18"/>
<text text-anchor="middle" x="328.43" y="-138.74" font-family="Times,serif" font-size="14.00">suppress warnings</text>
</g>
<!-- 4ef9f6a4&#45;ad6f&#45;4a21&#45;810a&#45;b403b5f2f67a&#45;&gt;56f950da&#45;4d98&#45;4728&#45;bdb1&#45;d55514fcb7c8 -->
<g id="edge30" class="edge">
<title>4ef9f6a4&#45;ad6f&#45;4a21&#45;810a&#45;b403b5f2f67a&#45;&gt;56f950da&#45;4d98&#45;4728&#45;bdb1&#45;d55514fcb7c8</title>
<path fill="none" stroke="black" d="M329.21,-209.88C329.08,-198.53 328.91,-183.68 328.76,-170.8"/>
<polygon fill="black" stroke="black" points="332.26,-170.53 328.64,-160.57 325.26,-170.61 332.26,-170.53"/>
</g>
<!-- bea60bc2&#45;208c&#45;4998&#45;802a&#45;d41f103921c4 -->
<g id="node32" class="node">
<title>bea60bc2&#45;208c&#45;4998&#45;802a&#45;d41f103921c4</title>
<ellipse fill="#abd9e9" stroke="black" cx="100.74" cy="-293.92" rx="100.98" ry="18"/>
<text text-anchor="middle" x="100.74" y="-290.22" font-family="Times,serif" font-size="14.00">max matches in file</text>
</g>
<!-- 77eb70d5&#45;fca0&#45;4644&#45;93ee&#45;aab7e1ca3404&#45;&gt;bea60bc2&#45;208c&#45;4998&#45;802a&#45;d41f103921c4 -->
<g id="edge31" class="edge">
<title>77eb70d5&#45;fca0&#45;4644&#45;93ee&#45;aab7e1ca3404&#45;&gt;bea60bc2&#45;208c&#45;4998&#45;802a&#45;d41f103921c4</title>
<path fill="none" stroke="black" d="M165.44,-304.53C165.38,-304.52 165.33,-304.51 165.28,-304.5"/>
<polygon fill="black" stroke="black" points="175.48,-302.25 165.12,-304.48 174.61,-309.2 175.48,-302.25"/>
</g>
<!-- ecc9e984&#45;86f8&#45;48d6&#45;bc96&#45;519cf0d6a0cc -->
<g id="node33" class="node">
<title>ecc9e984&#45;86f8&#45;48d6&#45;bc96&#45;519cf0d6a0cc</title>
<ellipse fill="#abd9e9" stroke="black" cx="176.47" cy="-163.41" rx="76.89" ry="18"/>
<text text-anchor="middle" x="176.47" y="-159.71" font-family="Times,serif" font-size="14.00">only matching</text>
</g>
<!-- 25fd5526&#45;a615&#45;4a95&#45;b879&#45;a2149e67ef02&#45;&gt;ecc9e984&#45;86f8&#45;48d6&#45;bc96&#45;519cf0d6a0cc -->
<g id="edge32" class="edge">
<title>25fd5526&#45;a615&#45;4a95&#45;b879&#45;a2149e67ef02&#45;&gt;ecc9e984&#45;86f8&#45;48d6&#45;bc96&#45;519cf0d6a0cc</title>
<path fill="none" stroke="black" d="M222.14,-217.7C215.01,-209.23 206.08,-198.6 198,-189.01"/>
<polygon fill="black" stroke="black" points="200.6,-186.67 191.49,-181.26 195.24,-191.17 200.6,-186.67"/>
</g>
<!-- 5c82e734&#45;913c&#45;4011&#45;8de3&#45;3a8b53e71c74 -->
<g id="node34" class="node">
<title>5c82e734&#45;913c&#45;4011&#45;8de3&#45;3a8b53e71c74</title>
<ellipse fill="#abd9e9" stroke="black" cx="152.54" cy="-435.12" rx="36.5" ry="18"/>
<text text-anchor="middle" x="152.54" y="-431.42" font-family="Times,serif" font-size="14.00">count</text>
</g>
<!-- 8696fe3b&#45;254c&#45;41fe&#45;b2c8&#45;df0ba22f200b&#45;&gt;5c82e734&#45;913c&#45;4011&#45;8de3&#45;3a8b53e71c74 -->
<g id="edge33" class="edge">
<title>8696fe3b&#45;254c&#45;41fe&#45;b2c8&#45;df0ba22f200b&#45;&gt;5c82e734&#45;913c&#45;4011&#45;8de3&#45;3a8b53e71c74</title>
<path fill="none" stroke="black" d="M208.45,-404C201.41,-407.91 193.39,-412.38 185.66,-416.68"/>
<polygon fill="black" stroke="black" points="183.84,-413.69 176.8,-421.61 187.24,-419.81 183.84,-413.69"/>
</g>
<!-- ae98a8c6&#45;2a6e&#45;4b04&#45;9e42&#45;9a1554ef0fd6 -->
<g id="node35" class="node">
<title>ae98a8c6&#45;2a6e&#45;4b04&#45;9e42&#45;9a1554ef0fd6</title>
<ellipse fill="#abd9e9" stroke="black" cx="340.94" cy="-731.81" rx="73.5" ry="18"/>
<text text-anchor="middle" x="340.94" y="-728.11" font-family="Times,serif" font-size="14.00">hide filename</text>
</g>
<!-- c85086c2&#45;e04b&#45;44f8&#45;a8c5&#45;f7056811314e&#45;&gt;ae98a8c6&#45;2a6e&#45;4b04&#45;9e42&#45;9a1554ef0fd6 -->
<g id="edge34" class="edge">
<title>c85086c2&#45;e04b&#45;44f8&#45;a8c5&#45;f7056811314e&#45;&gt;ae98a8c6&#45;2a6e&#45;4b04&#45;9e42&#45;9a1554ef0fd6</title>
<path fill="none" stroke="black" d="M364.16,-665.85C360.24,-676.99 355.11,-691.57 350.66,-704.2"/>
<polygon fill="black" stroke="black" points="347.3,-703.21 347.28,-713.8 353.9,-705.53 347.3,-703.21"/>
</g>
<!-- 77125140&#45;30e1&#45;4382&#45;8b55&#45;657d42005a4d -->
<g id="node36" class="node">
<title>77125140&#45;30e1&#45;4382&#45;8b55&#45;657d42005a4d</title>
<ellipse fill="#abd9e9" stroke="black" cx="229.82" cy="-615.92" rx="77.5" ry="18"/>
<text text-anchor="middle" x="229.82" y="-612.22" font-family="Times,serif" font-size="14.00">show filename</text>
</g>
<!-- 64e7b2a2&#45;44c4&#45;4929&#45;9f0e&#45;1a1132e201c7&#45;&gt;77125140&#45;30e1&#45;4382&#45;8b55&#45;657d42005a4d -->
<g id="edge35" class="edge">
<title>64e7b2a2&#45;44c4&#45;4929&#45;9f0e&#45;1a1132e201c7&#45;&gt;77125140&#45;30e1&#45;4382&#45;8b55&#45;657d42005a4d</title>
<path fill="none" stroke="black" d="M285.64,-586.84C280.83,-589.34 275.57,-592.08 270.27,-594.84"/>
<polygon fill="black" stroke="black" points="268.63,-591.75 261.38,-599.47 271.87,-597.95 268.63,-591.75"/>
</g>
<!-- 1ca00e8c&#45;b384&#45;45a1&#45;bbff&#45;45c4f732ab26 -->
<g id="node37" class="node">
<title>1ca00e8c&#45;b384&#45;45a1&#45;bbff&#45;45c4f732ab26</title>
<ellipse fill="#abd9e9" stroke="black" cx="504.57" cy="-692.89" rx="54" ry="18"/>
<text text-anchor="middle" x="504.57" y="-689.19" font-family="Times,serif" font-size="14.00">recursive</text>
</g>
<!-- 44f5fc14&#45;6d6a&#45;4178&#45;b083&#45;3eca56d87092&#45;&gt;1ca00e8c&#45;b384&#45;45a1&#45;bbff&#45;45c4f732ab26 -->
<g id="edge36" class="edge">
<title>44f5fc14&#45;6d6a&#45;4178&#45;b083&#45;3eca56d87092&#45;&gt;1ca00e8c&#45;b384&#45;45a1&#45;bbff&#45;45c4f732ab26</title>
<path fill="none" stroke="black" d="M475.13,-635.72C479.73,-644.64 485.44,-655.73 490.6,-665.76"/>
<polygon fill="black" stroke="black" points="487.64,-667.66 495.33,-674.95 493.87,-664.46 487.64,-667.66"/>
</g>
</g>
</svg>
