<?xml version="1.0" encoding="UTF-8" standalone="no"?>
<!DOCTYPE svg PUBLIC "-//W3C//DTD SVG 1.1//EN"
 "http://www.w3.org/Graphics/SVG/1.1/DTD/svg11.dtd">
<!-- Generated by graphviz version 2.43.0 (0)
 -->
<!-- Pages: 1 -->
<svg width="1191pt" height="889pt"
 viewBox="0.00 0.00 1191.20 888.95" xmlns="http://www.w3.org/2000/svg" xmlns:xlink="http://www.w3.org/1999/xlink">
<g id="graph0" class="graph" transform="scale(1 1) rotate(0) translate(4 884.95)">
<polygon fill="white" stroke="transparent" points="-4,4 -4,-884.95 1187.2,-884.95 1187.2,4 -4,4"/>
<!-- 4197eef7&#45;7800&#45;4979&#45;9cfa&#45;b72199619f16 -->
<g id="node1" class="node">
<title>4197eef7&#45;7800&#45;4979&#45;9cfa&#45;b72199619f16</title>
<ellipse fill="#d7191c" stroke="black" cx="661.85" cy="-449.38" rx="32.5" ry="18"/>
<text text-anchor="middle" x="661.85" y="-445.68" font-family="Times,serif" font-size="14.00">grep</text>
</g>
<!-- 28922a0d&#45;f1ea&#45;4ccb&#45;8be1&#45;fcb018238f9e -->
<g id="node2" class="node">
<title>28922a0d&#45;f1ea&#45;4ccb&#45;8be1&#45;fcb018238f9e</title>
<ellipse fill="#fdae61" stroke="black" cx="670.73" cy="-636.77" rx="45.5" ry="18"/>
<text text-anchor="middle" x="670.73" y="-633.07" font-family="Times,serif" font-size="14.00">context</text>
</g>
<!-- 4197eef7&#45;7800&#45;4979&#45;9cfa&#45;b72199619f16&#45;&gt;28922a0d&#45;f1ea&#45;4ccb&#45;8be1&#45;fcb018238f9e -->
<g id="edge1" class="edge">
<title>4197eef7&#45;7800&#45;4979&#45;9cfa&#45;b72199619f16&#45;&gt;28922a0d&#45;f1ea&#45;4ccb&#45;8be1&#45;fcb018238f9e</title>
<path fill="none" stroke="black" d="M662.72,-467.68C664.27,-500.51 667.55,-569.59 669.39,-608.53"/>
<polygon fill="black" stroke="black" points="665.9,-608.84 669.87,-618.66 672.89,-608.51 665.9,-608.84"/>
</g>
<!-- 8e468ff3&#45;1332&#45;49f4&#45;b586&#45;9b7d2351ab6e -->
<g id="node3" class="node">
<title>8e468ff3&#45;1332&#45;49f4&#45;b586&#45;9b7d2351ab6e</title>
<ellipse fill="#fdae61" stroke="black" cx="445.93" cy="-478.45" rx="61.19" ry="18"/>
<text text-anchor="middle" x="445.93" y="-474.75" font-family="Times,serif" font-size="14.00">expression</text>
</g>
<!-- 4197eef7&#45;7800&#45;4979&#45;9cfa&#45;b72199619f16&#45;&gt;8e468ff3&#45;1332&#45;49f4&#45;b586&#45;9b7d2351ab6e -->
<g id="edge2" class="edge">
<title>4197eef7&#45;7800&#45;4979&#45;9cfa&#45;b72199619f16&#45;&gt;8e468ff3&#45;1332&#45;49f4&#45;b586&#45;9b7d2351ab6e</title>
<path fill="none" stroke="black" d="M629.99,-453.67C599.02,-457.84 551.05,-464.3 511.84,-469.58"/>
<polygon fill="black" stroke="black" points="511.26,-466.13 501.82,-470.93 512.2,-473.06 511.26,-466.13"/>
</g>
<!-- 4cb8d081&#45;e89f&#45;4c3b&#45;a1ec&#45;6331377320d1 -->
<g id="node4" class="node">
<title>4cb8d081&#45;e89f&#45;4c3b&#45;a1ec&#45;6331377320d1</title>
<ellipse fill="#fdae61" stroke="black" cx="674.42" cy="-247.67" rx="41.69" ry="18"/>
<text text-anchor="middle" x="674.42" y="-243.97" font-family="Times,serif" font-size="14.00">output</text>
</g>
<!-- 4197eef7&#45;7800&#45;4979&#45;9cfa&#45;b72199619f16&#45;&gt;4cb8d081&#45;e89f&#45;4c3b&#45;a1ec&#45;6331377320d1 -->
<g id="edge3" class="edge">
<title>4197eef7&#45;7800&#45;4979&#45;9cfa&#45;b72199619f16&#45;&gt;4cb8d081&#45;e89f&#45;4c3b&#45;a1ec&#45;6331377320d1</title>
<path fill="none" stroke="black" d="M662.99,-431.12C665.19,-395.79 670.04,-317.87 672.66,-275.85"/>
<polygon fill="black" stroke="black" points="676.16,-275.94 673.29,-265.74 669.18,-275.5 676.16,-275.94"/>
</g>
<!-- 17414df7&#45;1888&#45;454b&#45;9ffb&#45;0ca07540d5f4 -->
<g id="node5" class="node">
<title>17414df7&#45;1888&#45;454b&#45;9ffb&#45;0ca07540d5f4</title>
<ellipse fill="#fdae61" stroke="black" cx="864.05" cy="-463.15" rx="61.19" ry="18"/>
<text text-anchor="middle" x="864.05" y="-459.45" font-family="Times,serif" font-size="14.00">file / folder</text>
</g>
<!-- 4197eef7&#45;7800&#45;4979&#45;9cfa&#45;b72199619f16&#45;&gt;17414df7&#45;1888&#45;454b&#45;9ffb&#45;0ca07540d5f4 -->
<g id="edge4" class="edge">
<title>4197eef7&#45;7800&#45;4979&#45;9cfa&#45;b72199619f16&#45;&gt;17414df7&#45;1888&#45;454b&#45;9ffb&#45;0ca07540d5f4</title>
<path fill="none" stroke="black" d="M694.34,-451.59C721.15,-453.41 760.14,-456.07 794,-458.38"/>
<polygon fill="black" stroke="black" points="794.11,-461.9 804.32,-459.08 794.58,-454.91 794.11,-461.9"/>
</g>
<!-- 0eee7063&#45;a041&#45;4be1&#45;9668&#45;e2b78c90f018 -->
<g id="node6" class="node">
<title>0eee7063&#45;a041&#45;4be1&#45;9668&#45;e2b78c90f018</title>
<ellipse fill="#ffffbf" stroke="black" cx="758.21" cy="-660.99" rx="27" ry="18"/>
<text text-anchor="middle" x="758.21" y="-657.29" font-family="Times,serif" font-size="14.00">&#45;A</text>
</g>
<!-- 28922a0d&#45;f1ea&#45;4ccb&#45;8be1&#45;fcb018238f9e&#45;&gt;0eee7063&#45;a041&#45;4be1&#45;9668&#45;e2b78c90f018 -->
<g id="edge5" class="edge">
<title>28922a0d&#45;f1ea&#45;4ccb&#45;8be1&#45;fcb018238f9e&#45;&gt;0eee7063&#45;a041&#45;4be1&#45;9668&#45;e2b78c90f018</title>
<path fill="none" stroke="black" d="M708.08,-647.11C713.1,-648.5 718.24,-649.92 723.21,-651.3"/>
<polygon fill="black" stroke="black" points="722.55,-654.75 733.12,-654.04 724.41,-648 722.55,-654.75"/>
</g>
<!-- 1956e1f4&#45;039d&#45;4626&#45;99ca&#45;fab069e0e9fe -->
<g id="node7" class="node">
<title>1956e1f4&#45;039d&#45;4626&#45;99ca&#45;fab069e0e9fe</title>
<ellipse fill="#ffffbf" stroke="black" cx="611.78" cy="-755.98" rx="27" ry="18"/>
<text text-anchor="middle" x="611.78" y="-752.28" font-family="Times,serif" font-size="14.00">&#45;B</text>
</g>
<!-- 28922a0d&#45;f1ea&#45;4ccb&#45;8be1&#45;fcb018238f9e&#45;&gt;1956e1f4&#45;039d&#45;4626&#45;99ca&#45;fab069e0e9fe -->
<g id="edge6" class="edge">
<title>28922a0d&#45;f1ea&#45;4ccb&#45;8be1&#45;fcb018238f9e&#45;&gt;1956e1f4&#45;039d&#45;4626&#45;99ca&#45;fab069e0e9fe</title>
<path fill="none" stroke="black" d="M661.9,-654.61C652.07,-674.51 636.06,-706.87 624.79,-729.66"/>
<polygon fill="black" stroke="black" points="621.58,-728.26 620.28,-738.78 627.85,-731.37 621.58,-728.26"/>
</g>
<!-- 02204969&#45;7873&#45;4050&#45;9fae&#45;51c65620c96e -->
<g id="node8" class="node">
<title>02204969&#45;7873&#45;4050&#45;9fae&#45;51c65620c96e</title>
<ellipse fill="#ffffbf" stroke="black" cx="724.35" cy="-765.63" rx="27" ry="18"/>
<text text-anchor="middle" x="724.35" y="-761.93" font-family="Times,serif" font-size="14.00">&#45;C</text>
</g>
<!-- 28922a0d&#45;f1ea&#45;4ccb&#45;8be1&#45;fcb018238f9e&#45;&gt;02204969&#45;7873&#45;4050&#45;9fae&#45;51c65620c96e -->
<g id="edge7" class="edge">
<title>28922a0d&#45;f1ea&#45;4ccb&#45;8be1&#45;fcb018238f9e&#45;&gt;02204969&#45;7873&#45;4050&#45;9fae&#45;51c65620c96e</title>
<path fill="none" stroke="black" d="M678.18,-654.68C687.28,-676.54 702.73,-713.69 713.23,-738.92"/>
<polygon fill="black" stroke="black" points="710.05,-740.39 717.12,-748.28 716.51,-737.7 710.05,-740.39"/>
</g>
<!-- 3fe4275b&#45;b2a4&#45;4076&#45;b699&#45;cd87fb6092f6 -->
<g id="node9" class="node">
<title>3fe4275b&#45;b2a4&#45;4076&#45;b699&#45;cd87fb6092f6</title>
<ellipse fill="#ffffbf" stroke="black" cx="597.14" cy="-595.29" rx="27" ry="18"/>
<text text-anchor="middle" x="597.14" y="-591.59" font-family="Times,serif" font-size="14.00">&#45;n</text>
</g>
<!-- 28922a0d&#45;f1ea&#45;4ccb&#45;8be1&#45;fcb018238f9e&#45;&gt;3fe4275b&#45;b2a4&#45;4076&#45;b699&#45;cd87fb6092f6 -->
<g id="edge8" class="edge">
<title>28922a0d&#45;f1ea&#45;4ccb&#45;8be1&#45;fcb018238f9e&#45;&gt;3fe4275b&#45;b2a4&#45;4076&#45;b699&#45;cd87fb6092f6</title>
<path fill="none" stroke="black" d="M644.58,-622.03C638.83,-618.79 632.7,-615.34 626.83,-612.03"/>
<polygon fill="black" stroke="black" points="628.32,-608.85 617.89,-606.99 624.88,-614.95 628.32,-608.85"/>
</g>
<!-- ca1e9092&#45;d421&#45;4b1e&#45;b057&#45;9ccc00ccf3aa -->
<g id="node10" class="node">
<title>ca1e9092&#45;d421&#45;4b1e&#45;b057&#45;9ccc00ccf3aa</title>
<ellipse fill="#ffffbf" stroke="black" cx="407.63" cy="-596.85" rx="27" ry="18"/>
<text text-anchor="middle" x="407.63" y="-593.15" font-family="Times,serif" font-size="14.00">&#45;e</text>
</g>
<!-- 8e468ff3&#45;1332&#45;49f4&#45;b586&#45;9b7d2351ab6e&#45;&gt;ca1e9092&#45;d421&#45;4b1e&#45;b057&#45;9ccc00ccf3aa -->
<g id="edge9" class="edge">
<title>8e468ff3&#45;1332&#45;49f4&#45;b586&#45;9b7d2351ab6e&#45;&gt;ca1e9092&#45;d421&#45;4b1e&#45;b057&#45;9ccc00ccf3aa</title>
<path fill="none" stroke="black" d="M440.11,-496.43C433.83,-515.84 423.76,-546.99 416.49,-569.45"/>
<polygon fill="black" stroke="black" points="413.12,-568.49 413.37,-579.08 419.78,-570.65 413.12,-568.49"/>
</g>
<!-- 94296de7&#45;e07c&#45;4cc0&#45;ac11&#45;e5807f4feecc -->
<g id="node11" class="node">
<title>94296de7&#45;e07c&#45;4cc0&#45;ac11&#45;e5807f4feecc</title>
<ellipse fill="#ffffbf" stroke="black" cx="336.83" cy="-527.53" rx="27" ry="18"/>
<text text-anchor="middle" x="336.83" y="-523.83" font-family="Times,serif" font-size="14.00">&#45;P</text>
</g>
<!-- 8e468ff3&#45;1332&#45;49f4&#45;b586&#45;9b7d2351ab6e&#45;&gt;94296de7&#45;e07c&#45;4cc0&#45;ac11&#45;e5807f4feecc -->
<g id="edge10" class="edge">
<title>8e468ff3&#45;1332&#45;49f4&#45;b586&#45;9b7d2351ab6e&#45;&gt;94296de7&#45;e07c&#45;4cc0&#45;ac11&#45;e5807f4feecc</title>
<path fill="none" stroke="black" d="M412.31,-493.58C398.5,-499.79 382.59,-506.94 368.95,-513.08"/>
<polygon fill="black" stroke="black" points="367.16,-510.05 359.47,-517.34 370.03,-516.43 367.16,-510.05"/>
</g>
<!-- d937a381&#45;046e&#45;4b81&#45;85cc&#45;7860702ea06b -->
<g id="node12" class="node">
<title>d937a381&#45;046e&#45;4b81&#45;85cc&#45;7860702ea06b</title>
<ellipse fill="#ffffbf" stroke="black" cx="283.63" cy="-420.63" rx="49.5" ry="18"/>
<text text-anchor="middle" x="283.63" y="-416.93" font-family="Times,serif" font-size="14.00">modifier</text>
</g>
<!-- 8e468ff3&#45;1332&#45;49f4&#45;b586&#45;9b7d2351ab6e&#45;&gt;d937a381&#45;046e&#45;4b81&#45;85cc&#45;7860702ea06b -->
<g id="edge11" class="edge">
<title>8e468ff3&#45;1332&#45;49f4&#45;b586&#45;9b7d2351ab6e&#45;&gt;d937a381&#45;046e&#45;4b81&#45;85cc&#45;7860702ea06b</title>
<path fill="none" stroke="black" d="M406.64,-464.45C383.04,-456.04 352.93,-445.32 328.41,-436.58"/>
<polygon fill="black" stroke="black" points="329.56,-433.27 318.96,-433.22 327.21,-439.87 329.56,-433.27"/>
</g>
<!-- bff3402d&#45;bf06&#45;472f&#45;bd1d&#45;11db06111135 -->
<g id="node13" class="node">
<title>bff3402d&#45;bf06&#45;472f&#45;bd1d&#45;11db06111135</title>
<ellipse fill="#ffffbf" stroke="black" cx="564.93" cy="-203.63" rx="27" ry="18"/>
<text text-anchor="middle" x="564.93" y="-199.93" font-family="Times,serif" font-size="14.00">&#45;s</text>
</g>
<!-- 4cb8d081&#45;e89f&#45;4c3b&#45;a1ec&#45;6331377320d1&#45;&gt;bff3402d&#45;bf06&#45;472f&#45;bd1d&#45;11db06111135 -->
<g id="edge12" class="edge">
<title>4cb8d081&#45;e89f&#45;4c3b&#45;a1ec&#45;6331377320d1&#45;&gt;bff3402d&#45;bf06&#45;472f&#45;bd1d&#45;11db06111135</title>
<path fill="none" stroke="black" d="M643.92,-235.4C629.63,-229.65 612.57,-222.79 597.97,-216.92"/>
<polygon fill="black" stroke="black" points="598.9,-213.52 588.32,-213.04 596.29,-220.02 598.9,-213.52"/>
</g>
<!-- fc4fd188&#45;f134&#45;4ca9&#45;9f8e&#45;53716fa5d151 -->
<g id="node14" class="node">
<title>fc4fd188&#45;f134&#45;4ca9&#45;9f8e&#45;53716fa5d151</title>
<ellipse fill="#ffffbf" stroke="black" cx="731.57" cy="-125.63" rx="27" ry="18"/>
<text text-anchor="middle" x="731.57" y="-121.93" font-family="Times,serif" font-size="14.00">&#45;m</text>
</g>
<!-- 4cb8d081&#45;e89f&#45;4c3b&#45;a1ec&#45;6331377320d1&#45;&gt;fc4fd188&#45;f134&#45;4ca9&#45;9f8e&#45;53716fa5d151 -->
<g id="edge13" class="edge">
<title>4cb8d081&#45;e89f&#45;4c3b&#45;a1ec&#45;6331377320d1&#45;&gt;fc4fd188&#45;f134&#45;4ca9&#45;9f8e&#45;53716fa5d151</title>
<path fill="none" stroke="black" d="M682.73,-229.93C692.3,-209.47 708.14,-175.66 719.17,-152.09"/>
<polygon fill="black" stroke="black" points="722.36,-153.54 723.43,-143 716.02,-150.57 722.36,-153.54"/>
</g>
<!-- 40c472c9&#45;067e&#45;4a57&#45;b409&#45;2d748a7ddede -->
<g id="node15" class="node">
<title>40c472c9&#45;067e&#45;4a57&#45;b409&#45;2d748a7ddede</title>
<ellipse fill="#ffffbf" stroke="black" cx="632.33" cy="-120.54" rx="27" ry="18"/>
<text text-anchor="middle" x="632.33" y="-116.84" font-family="Times,serif" font-size="14.00">&#45;o</text>
</g>
<!-- 4cb8d081&#45;e89f&#45;4c3b&#45;a1ec&#45;6331377320d1&#45;&gt;40c472c9&#45;067e&#45;4a57&#45;b409&#45;2d748a7ddede -->
<g id="edge14" class="edge">
<title>4cb8d081&#45;e89f&#45;4c3b&#45;a1ec&#45;6331377320d1&#45;&gt;40c472c9&#45;067e&#45;4a57&#45;b409&#45;2d748a7ddede</title>
<path fill="none" stroke="black" d="M668.48,-229.73C661.43,-208.43 649.59,-172.7 641.4,-147.93"/>
<polygon fill="black" stroke="black" points="644.71,-146.78 638.24,-138.39 638.06,-148.98 644.71,-146.78"/>
</g>
<!-- a45d4a5c&#45;97f7&#45;4106&#45;88cf&#45;ad35b7bf3990 -->
<g id="node16" class="node">
<title>a45d4a5c&#45;97f7&#45;4106&#45;88cf&#45;ad35b7bf3990</title>
<ellipse fill="#ffffbf" stroke="black" cx="787.79" cy="-212.03" rx="27" ry="18"/>
<text text-anchor="middle" x="787.79" y="-208.33" font-family="Times,serif" font-size="14.00">&#45;c</text>
</g>
<!-- 4cb8d081&#45;e89f&#45;4c3b&#45;a1ec&#45;6331377320d1&#45;&gt;a45d4a5c&#45;97f7&#45;4106&#45;88cf&#45;ad35b7bf3990 -->
<g id="edge15" class="edge">
<title>4cb8d081&#45;e89f&#45;4c3b&#45;a1ec&#45;6331377320d1&#45;&gt;a45d4a5c&#45;97f7&#45;4106&#45;88cf&#45;ad35b7bf3990</title>
<path fill="none" stroke="black" d="M708.12,-237.08C722.31,-232.62 738.8,-227.43 753.08,-222.94"/>
<polygon fill="black" stroke="black" points="754.54,-226.15 763.03,-219.82 752.44,-219.47 754.54,-226.15"/>
</g>
<!-- 61ea6c4f&#45;0792&#45;4c58&#45;b28c&#45;2fcab31d30a5 -->
<g id="node17" class="node">
<title>61ea6c4f&#45;0792&#45;4c58&#45;b28c&#45;2fcab31d30a5</title>
<ellipse fill="#ffffbf" stroke="black" cx="961.16" cy="-382.87" rx="27" ry="18"/>
<text text-anchor="middle" x="961.16" y="-379.17" font-family="Times,serif" font-size="14.00">&#45;h</text>
</g>
<!-- 17414df7&#45;1888&#45;454b&#45;9ffb&#45;0ca07540d5f4&#45;&gt;61ea6c4f&#45;0792&#45;4c58&#45;b28c&#45;2fcab31d30a5 -->
<g id="edge16" class="edge">
<title>17414df7&#45;1888&#45;454b&#45;9ffb&#45;0ca07540d5f4&#45;&gt;61ea6c4f&#45;0792&#45;4c58&#45;b28c&#45;2fcab31d30a5</title>
<path fill="none" stroke="black" d="M884.64,-446.12C899.72,-433.66 920.25,-416.68 936.25,-403.46"/>
<polygon fill="black" stroke="black" points="938.68,-406 944.16,-396.93 934.22,-400.6 938.68,-406"/>
</g>
<!-- da9d8687&#45;8aca&#45;4662&#45;b8d4&#45;d9b0480e08f3 -->
<g id="node18" class="node">
<title>da9d8687&#45;8aca&#45;4662&#45;b8d4&#45;d9b0480e08f3</title>
<ellipse fill="#ffffbf" stroke="black" cx="999.31" cy="-479.25" rx="27" ry="18"/>
<text text-anchor="middle" x="999.31" y="-475.55" font-family="Times,serif" font-size="14.00">&#45;H</text>
</g>
<!-- 17414df7&#45;1888&#45;454b&#45;9ffb&#45;0ca07540d5f4&#45;&gt;da9d8687&#45;8aca&#45;4662&#45;b8d4&#45;d9b0480e08f3 -->
<g id="edge17" class="edge">
<title>17414df7&#45;1888&#45;454b&#45;9ffb&#45;0ca07540d5f4&#45;&gt;da9d8687&#45;8aca&#45;4662&#45;b8d4&#45;d9b0480e08f3</title>
<path fill="none" stroke="black" d="M921.02,-469.93C935.01,-471.59 949.62,-473.33 962.38,-474.85"/>
<polygon fill="black" stroke="black" points="962.27,-478.36 972.61,-476.07 963.1,-471.41 962.27,-478.36"/>
</g>
<!-- e05dcd0d&#45;a7e5&#45;46a3&#45;b9b6&#45;26b766981d5a -->
<g id="node19" class="node">
<title>e05dcd0d&#45;a7e5&#45;46a3&#45;b9b6&#45;26b766981d5a</title>
<ellipse fill="#ffffbf" stroke="black" cx="947.19" cy="-561.93" rx="27" ry="18"/>
<text text-anchor="middle" x="947.19" y="-558.23" font-family="Times,serif" font-size="14.00">&#45;r</text>
</g>
<!-- 17414df7&#45;1888&#45;454b&#45;9ffb&#45;0ca07540d5f4&#45;&gt;e05dcd0d&#45;a7e5&#45;46a3&#45;b9b6&#45;26b766981d5a -->
<g id="edge18" class="edge">
<title>17414df7&#45;1888&#45;454b&#45;9ffb&#45;0ca07540d5f4&#45;&gt;e05dcd0d&#45;a7e5&#45;46a3&#45;b9b6&#45;26b766981d5a</title>
<path fill="none" stroke="black" d="M878.91,-480.81C892.32,-496.73 912.15,-520.3 926.99,-537.93"/>
<polygon fill="black" stroke="black" points="924.71,-540.66 933.83,-546.05 930.06,-536.15 924.71,-540.66"/>
</g>
<!-- 49d26065&#45;3fab&#45;4043&#45;ba42&#45;d4b0b3844b10 -->
<g id="node20" class="node">
<title>49d26065&#45;3fab&#45;4043&#45;ba42&#45;d4b0b3844b10</title>
<ellipse fill="#abd9e9" stroke="black" cx="815.96" cy="-610.84" rx="33.29" ry="18"/>
<text text-anchor="middle" x="815.96" y="-607.14" font-family="Times,serif" font-size="14.00">after</text>
</g>
<!-- 0eee7063&#45;a041&#45;4be1&#45;9668&#45;e2b78c90f018&#45;&gt;49d26065&#45;3fab&#45;4043&#45;ba42&#45;d4b0b3844b10 -->
<g id="edge19" class="edge">
<title>0eee7063&#45;a041&#45;4be1&#45;9668&#45;e2b78c90f018&#45;&gt;49d26065&#45;3fab&#45;4043&#45;ba42&#45;d4b0b3844b10</title>
<path fill="none" stroke="black" d="M774.92,-646.48C779.84,-642.21 785.34,-637.43 790.68,-632.8"/>
<polygon fill="black" stroke="black" points="793.04,-635.39 798.29,-626.19 788.45,-630.11 793.04,-635.39"/>
</g>
<!-- d1c4fc29&#45;d287&#45;4294&#45;9901&#45;51e994438c1a -->
<g id="node21" class="node">
<title>d1c4fc29&#45;d287&#45;4294&#45;9901&#45;51e994438c1a</title>
<ellipse fill="#abd9e9" stroke="black" cx="574.38" cy="-853.76" rx="40.5" ry="18"/>
<text text-anchor="middle" x="574.38" y="-850.06" font-family="Times,serif" font-size="14.00">before</text>
</g>
<!-- 1956e1f4&#45;039d&#45;4626&#45;99ca&#45;fab069e0e9fe&#45;&gt;d1c4fc29&#45;d287&#45;4294&#45;9901&#45;51e994438c1a -->
<g id="edge20" class="edge">
<title>1956e1f4&#45;039d&#45;4626&#45;99ca&#45;fab069e0e9fe&#45;&gt;d1c4fc29&#45;d287&#45;4294&#45;9901&#45;51e994438c1a</title>
<path fill="none" stroke="black" d="M605.09,-773.46C599.47,-788.15 591.34,-809.41 584.86,-826.37"/>
<polygon fill="black" stroke="black" points="581.57,-825.18 581.26,-835.77 588.11,-827.68 581.57,-825.18"/>
</g>
<!-- f8bbeed3&#45;fc17&#45;481b&#45;8fc4&#45;83fccd94662d -->
<g id="node22" class="node">
<title>f8bbeed3&#45;fc17&#45;481b&#45;8fc4&#45;83fccd94662d</title>
<ellipse fill="#abd9e9" stroke="black" cx="765.43" cy="-862.95" rx="45.5" ry="18"/>
<text text-anchor="middle" x="765.43" y="-859.25" font-family="Times,serif" font-size="14.00">context</text>
</g>
<!-- 02204969&#45;7873&#45;4050&#45;9fae&#45;51c65620c96e&#45;&gt;f8bbeed3&#45;fc17&#45;481b&#45;8fc4&#45;83fccd94662d -->
<g id="edge21" class="edge">
<title>02204969&#45;7873&#45;4050&#45;9fae&#45;51c65620c96e&#45;&gt;f8bbeed3&#45;fc17&#45;481b&#45;8fc4&#45;83fccd94662d</title>
<path fill="none" stroke="black" d="M731.69,-783.03C737.86,-797.65 746.8,-818.81 753.92,-835.68"/>
<polygon fill="black" stroke="black" points="750.76,-837.19 757.87,-845.04 757.21,-834.47 750.76,-837.19"/>
</g>
<!-- 1ae3c706&#45;f4fb&#45;4ed6&#45;a82c&#45;feec2af9ad99 -->
<g id="node23" class="node">
<title>1ae3c706&#45;f4fb&#45;4ed6&#45;a82c&#45;feec2af9ad99</title>
<ellipse fill="#abd9e9" stroke="black" cx="565.45" cy="-517.19" rx="67" ry="18"/>
<text text-anchor="middle" x="565.45" y="-513.49" font-family="Times,serif" font-size="14.00">line number</text>
</g>
<!-- 3fe4275b&#45;b2a4&#45;4076&#45;b699&#45;cd87fb6092f6&#45;&gt;1ae3c706&#45;f4fb&#45;4ed6&#45;a82c&#45;feec2af9ad99 -->
<g id="edge22" class="edge">
<title>3fe4275b&#45;b2a4&#45;4076&#45;b699&#45;cd87fb6092f6&#45;&gt;1ae3c706&#45;f4fb&#45;4ed6&#45;a82c&#45;feec2af9ad99</title>
<path fill="none" stroke="black" d="M589.95,-577.57C586.01,-567.85 581.03,-555.59 576.6,-544.66"/>
<polygon fill="black" stroke="black" points="579.73,-543.06 572.72,-535.11 573.24,-545.69 579.73,-543.06"/>
</g>
<!-- 8d7b24a1&#45;26e6&#45;41b4&#45;a188&#45;c97fe1289f46 -->
<g id="node24" class="node">
<title>8d7b24a1&#45;26e6&#45;41b4&#45;a188&#45;c97fe1289f46</title>
<ellipse fill="#abd9e9" stroke="black" cx="365.65" cy="-692.06" rx="178.17" ry="18"/>
<text text-anchor="middle" x="365.65" y="-688.36" font-family="Times,serif" font-size="14.00">pattern. multiple &#45;e can be specified</text>
</g>
<!-- ca1e9092&#45;d421&#45;4b1e&#45;b057&#45;9ccc00ccf3aa&#45;&gt;8d7b24a1&#45;26e6&#45;41b4&#45;a188&#45;c97fe1289f46 -->
<g id="edge23" class="edge">
<title>ca1e9092&#45;d421&#45;4b1e&#45;b057&#45;9ccc00ccf3aa&#45;&gt;8d7b24a1&#45;26e6&#45;41b4&#45;a188&#45;c97fe1289f46</title>
<path fill="none" stroke="black" d="M399.93,-614.31C393.73,-628.36 384.91,-648.36 377.77,-664.55"/>
<polygon fill="black" stroke="black" points="374.41,-663.5 373.58,-674.06 380.82,-666.32 374.41,-663.5"/>
</g>
<!-- 3da1eddd&#45;e14c&#45;4ddb&#45;83e6&#45;534a6d3986f1 -->
<g id="node25" class="node">
<title>3da1eddd&#45;e14c&#45;4ddb&#45;83e6&#45;534a6d3986f1</title>
<ellipse fill="#abd9e9" stroke="black" cx="253.66" cy="-589.47" rx="58.5" ry="18"/>
<text text-anchor="middle" x="253.66" y="-585.77" font-family="Times,serif" font-size="14.00">perl regex</text>
</g>
<!-- 94296de7&#45;e07c&#45;4cc0&#45;ac11&#45;e5807f4feecc&#45;&gt;3da1eddd&#45;e14c&#45;4ddb&#45;83e6&#45;534a6d3986f1 -->
<g id="edge24" class="edge">
<title>94296de7&#45;e07c&#45;4cc0&#45;ac11&#45;e5807f4feecc&#45;&gt;3da1eddd&#45;e14c&#45;4ddb&#45;83e6&#45;534a6d3986f1</title>
<path fill="none" stroke="black" d="M318.78,-540.97C308.71,-548.47 295.89,-558.02 284.3,-566.66"/>
<polygon fill="black" stroke="black" points="282.06,-563.96 276.13,-572.74 286.24,-569.58 282.06,-563.96"/>
</g>
<!-- 45dc042e&#45;7fd6&#45;436d&#45;b169&#45;2b41d9f2ce76 -->
<g id="node26" class="node">
<title>45dc042e&#45;7fd6&#45;436d&#45;b169&#45;2b41d9f2ce76</title>
<ellipse fill="#abd9e9" stroke="black" cx="198.33" cy="-334.41" rx="27" ry="18"/>
<text text-anchor="middle" x="198.33" y="-330.71" font-family="Times,serif" font-size="14.00">&#45;v</text>
</g>
<!-- d937a381&#45;046e&#45;4b81&#45;85cc&#45;7860702ea06b&#45;&gt;45dc042e&#45;7fd6&#45;436d&#45;b169&#45;2b41d9f2ce76 -->
<g id="edge25" class="edge">
<title>d937a381&#45;046e&#45;4b81&#45;85cc&#45;7860702ea06b&#45;&gt;45dc042e&#45;7fd6&#45;436d&#45;b169&#45;2b41d9f2ce76</title>
<path fill="none" stroke="black" d="M266.78,-403.59C253.55,-390.22 235.01,-371.49 220.57,-356.89"/>
<polygon fill="black" stroke="black" points="222.96,-354.33 213.44,-349.68 217.98,-359.25 222.96,-354.33"/>
</g>
<!-- 59086b76&#45;1adb&#45;4026&#45;b3fa&#45;266c6ae0b231 -->
<g id="node27" class="node">
<title>59086b76&#45;1adb&#45;4026&#45;b3fa&#45;266c6ae0b231</title>
<ellipse fill="#abd9e9" stroke="black" cx="160.91" cy="-454.4" rx="27" ry="18"/>
<text text-anchor="middle" x="160.91" y="-450.7" font-family="Times,serif" font-size="14.00">&#45;i</text>
</g>
<!-- d937a381&#45;046e&#45;4b81&#45;85cc&#45;7860702ea06b&#45;&gt;59086b76&#45;1adb&#45;4026&#45;b3fa&#45;266c6ae0b231 -->
<g id="edge26" class="edge">
<title>d937a381&#45;046e&#45;4b81&#45;85cc&#45;7860702ea06b&#45;&gt;59086b76&#45;1adb&#45;4026&#45;b3fa&#45;266c6ae0b231</title>
<path fill="none" stroke="black" d="M244.12,-431.5C228.64,-435.76 211.02,-440.61 195.99,-444.75"/>
<polygon fill="black" stroke="black" points="194.77,-441.45 186.06,-447.48 196.63,-448.2 194.77,-441.45"/>
</g>
<!-- 89dce926&#45;5f71&#45;4f04&#45;ae9d&#45;a7ae95894e3a -->
<g id="node28" class="node">
<title>89dce926&#45;5f71&#45;4f04&#45;ae9d&#45;a7ae95894e3a</title>
<ellipse fill="#abd9e9" stroke="black" cx="482.17" cy="-147.35" rx="99" ry="18"/>
<text text-anchor="middle" x="482.17" y="-143.65" font-family="Times,serif" font-size="14.00">suppress warnings</text>
</g>
<!-- bff3402d&#45;bf06&#45;472f&#45;bd1d&#45;11db06111135&#45;&gt;89dce926&#45;5f71&#45;4f04&#45;ae9d&#45;a7ae95894e3a -->
<g id="edge27" class="edge">
<title>bff3402d&#45;bf06&#45;472f&#45;bd1d&#45;11db06111135&#45;&gt;89dce926&#45;5f71&#45;4f04&#45;ae9d&#45;a7ae95894e3a</title>
<path fill="none" stroke="black" d="M545.73,-190.57C536.93,-184.59 526.22,-177.31 516.13,-170.44"/>
<polygon fill="black" stroke="black" points="518.08,-167.53 507.84,-164.81 514.15,-173.32 518.08,-167.53"/>
</g>
<!-- 12e69ff4&#45;c557&#45;4ec6&#45;b830&#45;8b91adf5bcea -->
<g id="node29" class="node">
<title>12e69ff4&#45;c557&#45;4ec6&#45;b830&#45;8b91adf5bcea</title>
<ellipse fill="#abd9e9" stroke="black" cx="775.84" cy="-28.11" rx="100.98" ry="18"/>
<text text-anchor="middle" x="775.84" y="-24.41" font-family="Times,serif" font-size="14.00">max matches in file</text>
</g>
<!-- fc4fd188&#45;f134&#45;4ca9&#45;9f8e&#45;53716fa5d151&#45;&gt;12e69ff4&#45;c557&#45;4ec6&#45;b830&#45;8b91adf5bcea -->
<g id="edge28" class="edge">
<title>fc4fd188&#45;f134&#45;4ca9&#45;9f8e&#45;53716fa5d151&#45;&gt;12e69ff4&#45;c557&#45;4ec6&#45;b830&#45;8b91adf5bcea</title>
<path fill="none" stroke="black" d="M739.48,-108.19C746.13,-93.54 755.76,-72.34 763.44,-55.43"/>
<polygon fill="black" stroke="black" points="766.75,-56.61 767.69,-46.05 760.37,-53.72 766.75,-56.61"/>
</g>
<!-- 6a195c54&#45;4ad4&#45;4120&#45;a313&#45;6ccc91106773 -->
<g id="node30" class="node">
<title>6a195c54&#45;4ad4&#45;4120&#45;a313&#45;6ccc91106773</title>
<ellipse fill="#abd9e9" stroke="black" cx="603.54" cy="-18" rx="76.89" ry="18"/>
<text text-anchor="middle" x="603.54" y="-14.3" font-family="Times,serif" font-size="14.00">only matching</text>
</g>
<!-- 40c472c9&#45;067e&#45;4a57&#45;b409&#45;2d748a7ddede&#45;&gt;6a195c54&#45;4ad4&#45;4120&#45;a313&#45;6ccc91106773 -->
<g id="edge29" class="edge">
<title>40c472c9&#45;067e&#45;4a57&#45;b409&#45;2d748a7ddede&#45;&gt;6a195c54&#45;4ad4&#45;4120&#45;a313&#45;6ccc91106773</title>
<path fill="none" stroke="black" d="M627.31,-102.68C622.9,-86.97 616.41,-63.84 611.33,-45.73"/>
<polygon fill="black" stroke="black" points="614.67,-44.68 608.6,-36 607.93,-46.57 614.67,-44.68"/>
</g>
<!-- 00ba41ce&#45;a1dc&#45;41bd&#45;aeb1&#45;30fbdea82145 -->
<g id="node31" class="node">
<title>00ba41ce&#45;a1dc&#45;41bd&#45;aeb1&#45;30fbdea82145</title>
<ellipse fill="#abd9e9" stroke="black" cx="876.3" cy="-161.96" rx="36.5" ry="18"/>
<text text-anchor="middle" x="876.3" y="-158.26" font-family="Times,serif" font-size="14.00">count</text>
</g>
<!-- a45d4a5c&#45;97f7&#45;4106&#45;88cf&#45;ad35b7bf3990&#45;&gt;00ba41ce&#45;a1dc&#45;41bd&#45;aeb1&#45;30fbdea82145 -->
<g id="edge30" class="edge">
<title>a45d4a5c&#45;97f7&#45;4106&#45;88cf&#45;ad35b7bf3990&#45;&gt;00ba41ce&#45;a1dc&#45;41bd&#45;aeb1&#45;30fbdea82145</title>
<path fill="none" stroke="black" d="M808.76,-200.17C819.01,-194.37 831.58,-187.26 843.09,-180.75"/>
<polygon fill="black" stroke="black" points="845.05,-183.66 852.03,-175.69 841.6,-177.57 845.05,-183.66"/>
</g>
<!-- 1d1d5a58&#45;d46d&#45;4f36&#45;b358&#45;0d2ea4151f44 -->
<g id="node32" class="node">
<title>1d1d5a58&#45;d46d&#45;4f36&#45;b358&#45;0d2ea4151f44</title>
<ellipse fill="#abd9e9" stroke="black" cx="1055.3" cy="-337.49" rx="73.5" ry="18"/>
<text text-anchor="middle" x="1055.3" y="-333.79" font-family="Times,serif" font-size="14.00">hide filename</text>
</g>
<!-- 61ea6c4f&#45;0792&#45;4c58&#45;b28c&#45;2fcab31d30a5&#45;&gt;1d1d5a58&#45;d46d&#45;4f36&#45;b358&#45;0d2ea4151f44 -->
<g id="edge31" class="edge">
<title>61ea6c4f&#45;0792&#45;4c58&#45;b28c&#45;2fcab31d30a5&#45;&gt;1d1d5a58&#45;d46d&#45;4f36&#45;b358&#45;0d2ea4151f44</title>
<path fill="none" stroke="black" d="M983.47,-372.11C992.21,-367.9 1002.5,-362.92 1012.6,-358.07"/>
<polygon fill="black" stroke="black" points="1014.22,-361.17 1021.7,-353.67 1011.17,-354.87 1014.22,-361.17"/>
</g>
<!-- 5e27ad79&#45;8050&#45;44a1&#45;a6e0&#45;eb9d12ee9d43 -->
<g id="node33" class="node">
<title>5e27ad79&#45;8050&#45;44a1&#45;a6e0&#45;eb9d12ee9d43</title>
<ellipse fill="#abd9e9" stroke="black" cx="1105.7" cy="-501.72" rx="77.5" ry="18"/>
<text text-anchor="middle" x="1105.7" y="-498.02" font-family="Times,serif" font-size="14.00">show filename</text>
</g>
<!-- da9d8687&#45;8aca&#45;4662&#45;b8d4&#45;d9b0480e08f3&#45;&gt;5e27ad79&#45;8050&#45;44a1&#45;a6e0&#45;eb9d12ee9d43 -->
<g id="edge32" class="edge">
<title>da9d8687&#45;8aca&#45;4662&#45;b8d4&#45;d9b0480e08f3&#45;&gt;5e27ad79&#45;8050&#45;44a1&#45;a6e0&#45;eb9d12ee9d43</title>
<path fill="none" stroke="black" d="M1025.1,-484.69C1029.3,-485.58 1033.8,-486.54 1038.6,-487.54"/>
<polygon fill="black" stroke="black" points="1037.89,-490.97 1048.4,-489.62 1039.34,-484.12 1037.89,-490.97"/>
</g>
<!-- 7e676799&#45;d640&#45;4987&#45;8613&#45;055647d86412 -->
<g id="node34" class="node">
<title>7e676799&#45;d640&#45;4987&#45;8613&#45;055647d86412</title>
<ellipse fill="#abd9e9" stroke="black" cx="1020.7" cy="-638.25" rx="54" ry="18"/>
<text text-anchor="middle" x="1020.7" y="-634.55" font-family="Times,serif" font-size="14.00">recursive</text>
</g>
<!-- e05dcd0d&#45;a7e5&#45;46a3&#45;b9b6&#45;26b766981d5a&#45;&gt;7e676799&#45;d640&#45;4987&#45;8613&#45;055647d86412 -->
<g id="edge33" class="edge">
<title>e05dcd0d&#45;a7e5&#45;46a3&#45;b9b6&#45;26b766981d5a&#45;&gt;7e676799&#45;d640&#45;4987&#45;8613&#45;055647d86412</title>
<path fill="none" stroke="black" d="M962.06,-577.37C972.03,-587.73 985.39,-601.61 996.83,-613.5"/>
<polygon fill="black" stroke="black" points="994.55,-616.18 1004,-620.96 999.59,-611.32 994.55,-616.18"/>
</g>
<!-- cf63d720&#45;261a&#45;41fa&#45;bed0&#45;77cb8477e6ee -->
<g id="node35" class="node">
<title>cf63d720&#45;261a&#45;41fa&#45;bed0&#45;77cb8477e6ee</title>
<ellipse fill="#2c7bb6" stroke="black" cx="118.4" cy="-276.99" rx="70.39" ry="18"/>
<text text-anchor="middle" x="118.4" y="-273.29" font-family="Times,serif" font-size="14.00">invert match</text>
</g>
<!-- 45dc042e&#45;7fd6&#45;436d&#45;b169&#45;2b41d9f2ce76&#45;&gt;cf63d720&#45;261a&#45;41fa&#45;bed0&#45;77cb8477e6ee -->
<g id="edge34" class="edge">
<title>45dc042e&#45;7fd6&#45;436d&#45;b169&#45;2b41d9f2ce76&#45;&gt;cf63d720&#45;261a&#45;41fa&#45;bed0&#45;77cb8477e6ee</title>
<path fill="none" stroke="black" d="M179.79,-321.09C171,-314.78 160.25,-307.05 150.21,-299.84"/>
<polygon fill="black" stroke="black" points="152.17,-296.94 142,-293.95 148.09,-302.62 152.17,-296.94"/>
</g>
<!-- 780ee0f8&#45;7a75&#45;4396&#45;aaa9&#45;1072020a1a0d -->
<g id="node36" class="node">
<title>780ee0f8&#45;7a75&#45;4396&#45;aaa9&#45;1072020a1a0d</title>
<ellipse fill="#2c7bb6" stroke="black" cx="63.69" cy="-484.28" rx="63.89" ry="18"/>
<text text-anchor="middle" x="63.69" y="-480.58" font-family="Times,serif" font-size="14.00">ignore case</text>
</g>
<!-- 59086b76&#45;1adb&#45;4026&#45;b3fa&#45;266c6ae0b231&#45;&gt;780ee0f8&#45;7a75&#45;4396&#45;aaa9&#45;1072020a1a0d -->
<g id="edge35" class="edge">
<title>59086b76&#45;1adb&#45;4026&#45;b3fa&#45;266c6ae0b231&#45;&gt;780ee0f8&#45;7a75&#45;4396&#45;aaa9&#45;1072020a1a0d</title>
<path fill="none" stroke="black" d="M136.37,-461.94C130.4,-463.78 123.78,-465.81 117.04,-467.89"/>
<polygon fill="black" stroke="black" points="115.67,-464.65 107.14,-470.93 117.73,-471.34 115.67,-464.65"/>
</g>
</g>
</svg>
